<?xml version="1.0" encoding="UTF-8"?>
<svg width="220px" height="140px" viewBox="0 0 220 140" version="1.1" xmlns="http://www.w3.org/2000/svg" xmlns:xlink="http://www.w3.org/1999/xlink">
    <!-- Generator: Sketch 42 (36781) - http://www.bohemiancoding.com/sketch -->
    <title>Kubernates_220x140</title>
    <desc>Created with Sketch.</desc>
    <defs></defs>
    <g id="Technologies" stroke="none" stroke-width="1" fill="none" fill-rule="evenodd">
        <g id="Kubernates_220x140">
            <rect id="Rectangle-3" x="0" y="0" width="220" height="140"></rect>
            <g id="kubernetes-seeklogo.com" transform="translate(78.000000, 39.000000)" fill-rule="nonzero">
                <g id="Group">
                    <path d="M20.5212903,61.2335485 C19.0348387,61.2335485 17.6309678,60.5729033 16.6812903,59.3754838 L2.22967742,41.4141935 C1.28,40.2167743 0.908387098,38.6890323 1.28,37.2025808 L6.44129033,14.7819355 C6.7716129,13.2954839 7.76258065,12.0980645 9.1251613,11.4374194 L30.0180645,1.44516129 C30.6787098,1.11483871 31.4219355,0.94967742 32.1651613,0.94967742 C32.908387,0.94967742 33.651613,1.11483871 34.312258,1.44516129 L55.2051613,11.396129 C56.567742,12.0567742 57.5587098,13.2541936 57.8890323,14.7406452 L63.0503225,37.1612903 C63.3806453,38.647742 63.0503225,40.1754838 62.1006453,41.3729033 L47.6490323,59.3341935 C46.6993548,60.4903225 45.2954838,61.192258 43.8090323,61.192258 L20.5212903,61.2335485 L20.5212903,61.2335485 Z" id="Shape" fill="#326DE6"></path>
                    <path d="M32.123871,1.98193549 C32.7019355,1.98193549 33.28,2.10580645 33.8167743,2.35354839 L54.7096775,12.3045161 C55.7832258,12.8412903 56.6090323,13.8322581 56.8567743,14.9883871 L62.0180645,37.4090323 C62.3070968,38.6064515 62.0180645,39.8451613 61.2335485,40.7948388 L46.7819355,58.756129 C46.0387098,59.7058065 44.8825808,60.2425808 43.6851613,60.2425808 L20.5212903,60.2425808 C19.323871,60.2425808 18.1677419,59.7058065 17.4245161,58.756129 L2.97290323,40.7948388 C2.22967742,39.8451613 1.94064516,38.6064515 2.1883871,37.4090323 L7.34967743,14.9883871 C7.63870968,13.7909678 8.4232258,12.8 9.4967742,12.3045161 L30.3896775,2.31225807 C30.9264515,2.10580645 31.5458065,1.98193549 32.123871,1.98193549 L32.123871,1.98193549 Z M32.123871,0.0412903225 L32.123871,0.0412903225 C31.2567742,0.0412903225 30.3896775,0.247741936 29.563871,0.619354838 L8.67096775,10.6116129 C7.01935485,11.396129 5.8632258,12.8412903 5.45032257,14.6167742 L0.289032257,37.0374193 C-0.123870968,38.8129033 0.289032257,40.6296775 1.44516129,42.0748388 L15.8967742,60.036129 C17.0116129,61.44 18.7045161,62.2245163 20.48,62.2245163 L43.643871,62.2245163 C45.4193547,62.2245163 47.112258,61.44 48.2270967,60.036129 L62.6787097,42.0748388 C63.8348387,40.6709678 64.247742,38.8129033 63.8348387,37.0374193 L58.6735485,14.6167742 C58.2606452,12.8412903 57.1045162,11.396129 55.4529032,10.6116129 L34.6425807,0.619354838 C33.8580645,0.247741936 32.9909677,0.0412903225 32.123871,0.0412903225 L32.123871,0.0412903225 L32.123871,0.0412903225 Z" id="Shape" fill="#FFFFFF"></path>
                    <path d="M53.0580645,35.6335485 L53.0580645,35.6335485 L53.0580645,35.6335485 C53.0167742,35.6335485 53.0167742,35.6335485 53.0580645,35.6335485 L53.0167742,35.6335485 C52.9754837,35.6335485 52.9341935,35.6335485 52.9341935,35.592258 C52.851613,35.592258 52.7690322,35.5509678 52.6864515,35.5509678 C52.3974192,35.5096775 52.1496775,35.468387 51.9019355,35.468387 C51.7780645,35.468387 51.6541935,35.468387 51.4890322,35.4270968 L51.447742,35.4270968 C50.5806452,35.3445163 49.8787097,35.2619355 49.2180645,35.0554838 C48.9290322,34.931613 48.8464515,34.7664515 48.763871,34.6012903 C48.763871,34.56 48.7225807,34.56 48.7225807,34.5187098 L48.7225807,34.5187098 L48.1858065,34.3535485 C48.4335485,32.4541935 48.3509677,30.472258 47.8967742,28.531613 C47.4425807,26.5909678 46.6580645,24.7741936 45.5845162,23.1225807 L45.9974192,22.7509678 L45.9974192,22.6683871 C45.9974192,22.4619355 46.0387097,22.2554839 46.203871,22.0490323 C46.6993547,21.5948387 47.3187097,21.2232258 48.0619355,20.7690323 L48.0619355,20.7690323 C48.1858065,20.6864516 48.3096775,20.6451613 48.4335485,20.5625807 C48.6812902,20.4387097 48.887742,20.3148387 49.1354837,20.1496774 C49.1767742,20.1083871 49.2593547,20.0670968 49.3419355,19.9845161 C49.3832257,19.9432258 49.4245162,19.9432258 49.4245162,19.9019355 L49.4245162,19.9019355 C50.0025807,19.4064516 50.1264515,18.5806452 49.7135485,18.043871 C49.5070967,17.7548387 49.1354837,17.5896774 48.763871,17.5896774 C48.4335485,17.5896774 48.1445162,17.7135484 47.8554837,17.92 L47.8554837,17.92 L47.8554837,17.92 C47.8141935,17.9612903 47.8141935,17.9612903 47.7729032,18.0025807 C47.6903225,18.043871 47.6490322,18.1264516 47.5664515,18.1677419 C47.36,18.3741936 47.1948387,18.5393549 47.0296775,18.7458065 C46.9470967,18.8283871 46.8645162,18.9522581 46.7406452,19.0348387 L46.7406452,19.0348387 C46.1625807,19.6541936 45.6258065,20.1496774 45.0890322,20.5212903 C44.9651612,20.603871 44.8412902,20.6451613 44.7174192,20.6451613 C44.6348387,20.6451613 44.552258,20.6451613 44.4696775,20.603871 L44.3870967,20.603871 L44.3870967,20.603871 L43.891613,20.9341936 C43.3548387,20.356129 42.7767742,19.8606452 42.1987097,19.3651613 C39.7212902,17.4245161 36.7070967,16.2270968 33.5690322,15.9380645 L33.527742,15.4012903 C33.4864515,15.36 33.4864515,15.36 33.4451612,15.3187097 C33.3212902,15.1948387 33.156129,15.0709678 33.1148387,14.7819355 C33.0735485,14.1212903 33.156129,13.3780645 33.2387097,12.5522581 L33.2387097,12.5109678 C33.2387097,12.3870968 33.28,12.2219355 33.3212902,12.0980645 C33.3625807,11.8503226 33.403871,11.6025807 33.4451612,11.3135484 L33.4451612,11.0658065 L33.4451612,10.9419355 L33.4451612,10.9419355 L33.4451612,10.9419355 C33.4451612,10.1987097 32.8670967,9.57935485 32.1651612,9.57935485 C31.8348387,9.57935485 31.5045162,9.74451613 31.2567742,9.99225808 C31.0090322,10.24 30.8851612,10.5703226 30.8851612,10.9419355 L30.8851612,10.9419355 L30.8851612,10.9419355 L30.8851612,11.0245161 L30.8851612,11.2722581 C30.8851612,11.5612903 30.9264515,11.8090323 31.0090322,12.0567742 C31.0503225,12.1806452 31.0503225,12.3045161 31.091613,12.4696774 L31.091613,12.5109678 C31.1741935,13.3367742 31.2980645,14.08 31.2154837,14.7406452 C31.1741935,15.0296774 31.0090322,15.1535484 30.8851612,15.2774194 C30.843871,15.3187097 30.843871,15.3187097 30.8025807,15.36 L30.8025807,15.36 L30.7612902,15.8967742 C30.0180645,15.9793549 29.2748387,16.0619355 28.531613,16.2270968 C25.352258,16.9290323 22.5445161,18.5393549 20.356129,20.8516129 L19.9432258,20.5625807 L19.8606451,20.5625807 C19.7780645,20.5625807 19.6954839,20.603871 19.6129032,20.603871 C19.4890322,20.603871 19.3651613,20.5625807 19.2412903,20.48 C18.7045161,20.1083871 18.1677419,19.5716129 17.5896774,18.9522581 L17.5896774,18.9522581 C17.5070968,18.8696774 17.4245161,18.7458065 17.3006451,18.6632258 C17.1354839,18.4567742 16.9703226,18.2916129 16.763871,18.0851613 C16.7225806,18.043871 16.64,18.0025807 16.5574193,17.92 C16.516129,17.8787097 16.4748387,17.8787097 16.4748387,17.8374194 L16.4748387,17.8374194 C16.2270968,17.6309678 15.8967742,17.5070968 15.5664516,17.5070968 C15.1948387,17.5070968 14.8232258,17.6722581 14.6167742,17.9612903 C14.203871,18.4980645 14.3277419,19.323871 14.9058064,19.8193549 L14.9058064,19.8193549 L14.9058064,19.8193549 C14.9470968,19.8193549 14.9470968,19.8606452 14.9883871,19.8606452 C15.0709677,19.9019355 15.1122581,19.9845161 15.1948387,20.0258065 C15.4425806,20.1909678 15.6490322,20.3148387 15.8967742,20.4387097 C16.0206451,20.48 16.1445161,20.5625807 16.2683871,20.6451613 L16.2683871,20.6451613 C17.0116129,21.0993549 17.6309677,21.4709678 18.1264516,21.9251613 C18.3329032,22.1316129 18.3329032,22.3380645 18.3329032,22.5445161 L18.3329032,22.6270968 L18.3329032,22.6270968 L18.7458064,22.9987097 C18.6632258,23.1225807 18.5806451,23.2051613 18.5393548,23.3290323 C16.4748387,26.5909678 15.6903226,30.4309678 16.2270968,34.2296775 L15.6903226,34.3948388 C15.6903226,34.436129 15.6490322,34.436129 15.6490322,34.4774193 C15.5664516,34.6425808 15.4425806,34.807742 15.1948387,34.931613 C14.5754839,35.1380645 13.8322581,35.2206453 12.9651613,35.3032258 L12.923871,35.3032258 C12.8,35.3032258 12.6348387,35.3032258 12.5109677,35.3445163 C12.2632258,35.3445163 12.0154839,35.3858065 11.7264516,35.4270968 C11.643871,35.4270968 11.5612903,35.468387 11.4787097,35.468387 C11.4374193,35.468387 11.396129,35.468387 11.3548387,35.5096775 L11.3548387,35.5096775 L11.3548387,35.5096775 C10.6116129,35.6748388 10.1574193,36.3767743 10.2812903,37.0374193 C10.4051613,37.6154838 10.9419355,37.9870968 11.6025806,37.9870968 C11.7264516,37.9870968 11.8090322,37.9870968 11.9329032,37.9458065 L11.9329032,37.9458065 L11.9329032,37.9458065 C11.9741935,37.9458065 12.0154839,37.9458065 12.0154839,37.9045163 C12.0980645,37.9045163 12.1806451,37.8632258 12.2632258,37.8632258 C12.5522581,37.7806453 12.7587097,37.6980645 13.0064516,37.5741935 C13.1303226,37.5329033 13.2541935,37.4503225 13.3780645,37.4090323 L13.4193548,37.4090323 C14.203871,37.12 14.9058064,36.872258 15.5664516,36.7896775 L15.6490322,36.7896775 C15.8967742,36.7896775 16.0619355,36.9135485 16.1858064,36.996129 C16.2270968,36.996129 16.2270968,37.0374193 16.2683871,37.0374193 L16.2683871,37.0374193 L16.8464516,36.9548388 C17.8374193,40.0103225 19.7367742,42.7354838 22.2554839,44.7174193 C22.8335484,45.171613 23.4116129,45.5432258 24.0309677,45.9148388 L23.7832258,46.451613 C23.7832258,46.4929033 23.8245161,46.4929033 23.8245161,46.5341935 C23.9070968,46.6993548 23.9896774,46.9058065 23.9070968,47.1948388 C23.6593548,47.8141935 23.2877419,48.4335485 22.8335484,49.1354838 L22.8335484,49.1767743 C22.7509677,49.3006453 22.6683871,49.3832258 22.5858064,49.5070968 C22.4206451,49.7135485 22.2967742,49.92 22.1316129,50.167742 C22.0903226,50.2090323 22.0490322,50.291613 22.0077419,50.3741935 C22.0077419,50.4154838 21.9664516,50.4567743 21.9664516,50.4567743 L21.9664516,50.4567743 L21.9664516,50.4567743 C21.636129,51.1587098 21.883871,51.9432258 22.5032258,52.232258 C22.6683871,52.3148388 22.8335484,52.356129 22.9987097,52.356129 C23.4941935,52.356129 23.9896774,52.0258065 24.2374193,51.571613 L24.2374193,51.571613 L24.2374193,51.571613 C24.2374193,51.5303225 24.2787097,51.4890323 24.2787097,51.4890323 C24.32,51.4064515 24.3612903,51.323871 24.4025806,51.2825808 C24.5264516,50.9935485 24.5677419,50.7870968 24.6503226,50.5393548 C24.6916129,50.4154838 24.7329032,50.291613 24.7741935,50.167742 L24.7741935,50.167742 C25.0632257,49.3419355 25.2696775,48.6812903 25.6412902,48.1032258 C25.8064515,47.8554838 26.0129032,47.8141935 26.1780645,47.731613 C26.2193547,47.731613 26.2193547,47.731613 26.2606452,47.6903225 L26.2606452,47.6903225 L26.5496775,47.1535485 C28.3664515,47.8554838 30.348387,48.2270968 32.3303225,48.2270968 C33.527742,48.2270968 34.7664515,48.1032258 35.9225807,47.8141935 C36.6658065,47.6490323 37.367742,47.4425808 38.0696775,47.1948388 L38.3174192,47.6490323 C38.3587097,47.6490323 38.3587097,47.6490323 38.4,47.6903225 C38.6064515,47.731613 38.771613,47.8141935 38.9367742,48.0619355 C39.2670967,48.64 39.5148387,49.3419355 39.803871,50.1264515 L39.803871,50.167742 C39.8451612,50.291613 39.8864515,50.4154838 39.927742,50.5393548 C40.0103225,50.7870968 40.051613,51.0348388 40.1754837,51.2825808 C40.2167742,51.3651613 40.2580645,51.4064515 40.2993547,51.4890323 C40.2993547,51.5303225 40.3406452,51.571613 40.3406452,51.571613 L40.3406452,51.571613 L40.3406452,51.571613 C40.588387,52.0670968 41.083871,52.356129 41.5793547,52.356129 C41.7445162,52.356129 41.9096775,52.3148388 42.0748387,52.232258 C42.363871,52.0670968 42.611613,51.8193548 42.6941935,51.4890323 C42.7767742,51.1587098 42.7767742,50.7870968 42.611613,50.4567743 L42.611613,50.4567743 L42.611613,50.4567743 C42.611613,50.4154838 42.5703225,50.4154838 42.5703225,50.3741935 C42.5290322,50.291613 42.487742,50.2090323 42.4464515,50.167742 C42.3225807,49.92 42.1574192,49.7135485 41.992258,49.5070968 C41.9096775,49.3832258 41.8270967,49.3006453 41.7445162,49.1767743 L41.7445162,49.1354838 C41.2903225,48.4335485 40.8774192,47.8141935 40.6709677,47.1948388 C40.588387,46.9058065 40.6709677,46.7406453 40.712258,46.5341935 C40.712258,46.4929033 40.7535485,46.4929033 40.7535485,46.451613 L40.7535485,46.451613 L40.5470967,45.956129 C42.7354837,44.676129 44.5935485,42.8593548 45.9974192,40.6296775 C46.7406452,39.4735485 47.3187097,38.1935485 47.731613,36.9135485 L48.2270967,36.996129 C48.268387,36.996129 48.268387,36.9548388 48.3096775,36.9548388 C48.4748387,36.872258 48.5987097,36.748387 48.8464515,36.748387 L48.9290322,36.748387 C49.5896775,36.8309678 50.291613,37.0787098 51.076129,37.367742 L51.1174192,37.367742 C51.2412902,37.4090323 51.3651612,37.491613 51.4890322,37.5329033 C51.7367742,37.6567743 51.9432257,37.7393548 52.232258,37.8219355 C52.3148387,37.8219355 52.3974192,37.8632258 52.48,37.8632258 C52.5212902,37.8632258 52.5625807,37.8632258 52.603871,37.9045163 L52.603871,37.9045163 C52.727742,37.9458065 52.8103225,37.9458065 52.9341935,37.9458065 C53.5535485,37.9458065 54.0903225,37.5329033 54.2554837,36.996129 C54.2554837,36.5006453 53.8012902,35.84 53.0580645,35.6335485 L53.0580645,35.6335485 Z M33.9406452,33.6103225 L32.123871,34.4774193 L30.3070967,33.6103225 L29.8529032,31.6696775 L31.091613,30.1006453 L33.1148387,30.1006453 L34.3535485,31.6696775 L33.9406452,33.6103225 L33.9406452,33.6103225 Z M44.7174192,29.316129 C45.047742,30.72 45.1303225,32.123871 45.0064515,33.4864515 L38.6890322,31.6696775 C38.1109677,31.5045163 37.7806452,30.9264515 37.9045162,30.348387 C37.9458065,30.1832258 38.028387,30.0180645 38.152258,29.8941935 L43.148387,25.3935485 C43.8503225,26.5496775 44.3870967,27.8709678 44.7174192,29.316129 L44.7174192,29.316129 Z M41.1664515,22.916129 L35.7574193,26.756129 C35.3032258,27.0451613 34.683871,26.9625808 34.312258,26.508387 C34.188387,26.3845163 34.1470968,26.2193548 34.1058065,26.0541935 L33.7341935,19.323871 C36.5832258,19.6541936 39.1845163,20.9341936 41.1664515,22.916129 L41.1664515,22.916129 Z M29.192258,19.5303226 C29.6464515,19.4477419 30.0593547,19.3651613 30.5135485,19.2825806 L30.1419355,25.8890322 C30.1006452,26.4670968 29.6464515,26.9625808 29.0270967,26.9625808 C28.8619355,26.9625808 28.6554837,26.9212902 28.531613,26.8387097 L23.04,22.916129 C24.7329032,21.2232258 26.8387097,20.0670968 29.192258,19.5303226 L29.192258,19.5303226 Z M21.0580645,25.3935485 L25.971613,29.7703225 C26.4258065,30.1419355 26.4670968,30.843871 26.0954838,31.2980645 C25.971613,31.4632258 25.8064515,31.5870968 25.6,31.628387 L19.2,33.4864515 C18.9522581,30.6787098 19.5716129,27.8296775 21.0580645,25.3935485 L21.0580645,25.3935485 Z M19.9432258,36.5832257 L26.508387,35.468387 C27.0451612,35.4270967 27.5406452,35.7987097 27.6645162,36.3354837 C27.7058065,36.5832257 27.7058065,36.7896775 27.6232257,36.996129 L27.6232257,36.996129 L25.1045162,43.0658065 C22.7922581,41.5793547 20.9341935,39.308387 19.9432258,36.5832257 L19.9432258,36.5832257 Z M35.0141935,44.8 C34.0645162,45.0064515 33.1148387,45.1303225 32.123871,45.1303225 C30.6787097,45.1303225 29.2748387,44.8825808 27.9535485,44.4696775 L31.2154837,38.5651613 C31.5458065,38.1935485 32.0825807,38.028387 32.5367742,38.276129 C32.7432257,38.4 32.908387,38.5651613 33.032258,38.7303225 L33.032258,38.7303225 L36.211613,44.4696775 C35.84,44.5935485 35.4270967,44.676129 35.0141935,44.8 L35.0141935,44.8 Z M43.0658065,39.0606453 C42.0335485,40.712258 40.6709677,42.0335485 39.1019355,43.0658065 L36.5006452,36.8309678 C36.3767742,36.3354838 36.5832257,35.7987098 37.0787097,35.5509678 C37.243871,35.468387 37.4503225,35.4270968 37.6567742,35.4270968 L44.2632257,36.5419355 C44.0154837,37.4503225 43.6025807,38.276129 43.0658065,39.0606453 L43.0658065,39.0606453 Z" id="Shape" fill="#FFFFFF"></path>
                </g>
            </g>
        </g>
    </g>
</svg>